<svg version="1" xmlns="http://www.w3.org/2000/svg" width="933.33333" height="933.33333" viewBox="0 0 700 700">
  <path d="M223.5 59.1c-35 3.8-64.6 29.3-74.7 64.4-2.3 7.9-2.3 8.5-2.3 66 0 57.2 0 58.1 2.3 65.8 4.6 16 11.8 28.3 22.9 39.4 7.1 7.1 18.5 14.9 26.8 18.4l5.5 2.3v63.4l-35.7.4c-32.8.4-36.5.7-43.8 2.7-32 8.7-55.6 32.6-63.7 64.8-2.2 8.4-2.3 10.7-2.3 48.8 0 43.9.3 46.3 6.4 62 6 15.5 18.1 30.4 32.5 39.9 9.6 6.4 17.7 9.9 28.9 12.6 8 1.9 12.5 2 203.5 2H525v-29h18.8c10.4 0 21.5-.5 24.8-1.1 30.5-5.4 55.3-25.5 66.8-54.3 7.8-19.5 7.8-43.9 0-63.8-8.3-21.3-27.9-40.9-49.2-49.2-11.5-4.5-19.5-5.8-40.9-6.3l-20.3-.6V379h-58v-63.8l5.4-2.2c17.3-7 34.5-23.5 43.5-41.7 8.7-17.5 9.3-23.5 8.9-87.3l-.4-52.5-2.7-8.8c-9.8-31.9-32.2-53.5-63.9-61.9-8.3-2.2-8.4-2.2-117.3-2.4-60-.1-112.6.2-117 .7zm226 60.3c5.6 2.6 12.5 9.5 15.2 15.3 1.6 3.4 1.8 8.2 2.1 51.7.2 31.8-.1 49.7-.8 53-1.4 6.6-6.2 14-11.6 17.6-9 6.2-5.6 6.1-122 5.8l-105.9-.3-5.7-2.8c-6.4-3.2-11.1-8-14.2-14.6-2-4.5-2.1-6.2-2.4-53.5-.3-54.4-.2-55.4 6.3-63.8 2.3-3.1 5.5-5.6 9.6-7.7l6.2-3.1h218.2l5 2.4zM408 350v29H262v-58h146v29zM204.2 451.7l.3 14.8 14.3.3 14.2.3V525h-29v29h-58v-29h-29v-57.9l14.3-.3 14.2-.3.3-14.8.3-14.7h57.8l.3 14.7zm364 18.6c9.1 5.3 13.9 12.8 14.6 22.9.6 8.6-1 14.2-5.6 20.3-10.6 13.9-30.1 15.3-42.9 3.2-13.2-12.4-12.1-32.9 2.2-43.8 6.4-4.9 9.6-5.9 19.1-5.5 6.6.2 8.9.7 12.6 2.9z"/>
</svg>
