<?xml version="1.0" encoding="utf-8"?>
<!-- Generator: Adobe Illustrator 16.0.0, SVG Export Plug-In . SVG Version: 6.00 Build 0)  -->
<!DOCTYPE svg PUBLIC "-//W3C//DTD SVG 1.1//EN" "http://www.w3.org/Graphics/SVG/1.1/DTD/svg11.dtd">
<svg version="1.1" id="Layer_1" xmlns="http://www.w3.org/2000/svg" xmlns:xlink="http://www.w3.org/1999/xlink" x="0px" y="0px"
	 width="283.46px" height="283.46px" viewBox="0 0 283.46 283.46" enable-background="new 0 0 283.46 283.46" xml:space="preserve">
<path opacity="0.5" fill-rule="evenodd" clip-rule="evenodd" d="M142.093,110.482c17.063,0,30.896,13.832,30.896,30.896
	c0,17.063-13.833,30.895-30.896,30.895c-17.063,0-30.896-13.832-30.896-30.895C111.197,124.314,125.029,110.482,142.093,110.482
	 M68.973,67.882c-20.604,20.345-31.126,45.495-31.113,74.322c0.013,29.11,10.79,54.395,31.781,74.711
	c20.861,20.188,46.182,29.681,72.457,29.47c26.275,0.211,51.598-9.279,72.457-29.469c20.991-20.317,31.769-45.602,31.781-74.712
	c0.013-28.827-10.509-53.978-31.113-74.322c-20.173-19.919-44.934-30.08-73.125-30.068C113.906,37.802,89.146,47.963,68.973,67.882z
	 M142.098,186.258c1.167-0.014,2.347-0.094,3.537-0.254c7.809-1.041,15.08-3.215,21.601-7.768
	c5.115-3.569,10.599-10.536,13.802-15.82c2.594-4.278,5.254-13.613,5.254-13.613s45.343,0.047,46.608,0.047
	c-2.631,24.006-11.866,44.65-29.9,60.665c-17.737,15.752-38.199,23.733-60.895,23.521h-0.014
	c-22.695,0.212-43.157-7.77-60.896-23.521c-18.033-16.017-27.27-36.659-29.899-60.665c1.266,0,46.608-0.047,46.608-0.047
	s2.66,9.335,5.253,13.613c3.204,5.284,8.688,12.251,13.803,15.82c6.521,4.553,13.791,6.727,21.601,7.768
	c1.19,0.16,2.37,0.24,3.537,0.252V186.258z"/>
</svg>
